<?xml version="1.0" encoding="utf-8"?>
<svg width="50" height="50" viewBox="0 0 50 50" fill="none" xmlns="http://www.w3.org/2000/svg">
  <g>
    <path d="M17 0C15.707 0 14.6055 0.84375 14.1875 2C14.1875 2 9.21875 2 9.21875 2C9.11719 1.97266 9.01172 1.96094 8.90625 1.96875C8.875 1.97656 8.84375 1.98828 8.8125 2C8.8125 2 3 2 3 2C1.35547 2 0 3.35547 0 5C0 5 0 40 0 40C0 41.6445 1.35547 43 3 43C3 43 21 43 21 43C21 44.6445 22.3555 46 24 46C24 46 42 46 42 46C43.6445 46 45 44.6445 45 43C45 43 45 20 45 20C45 18.3555 43.6445 17 42 17C42 17 34 17 34 17C34 17 34 5 34 5C34 3.35547 32.6445 2 31 2C31 2 19.8125 2 19.8125 2C19.3945 0.84375 18.293 0 17 0ZM17 2C17.5 2 17.8828 2.34375 17.9688 2.8125C17.9453 2.9375 17.9453 3.0625 17.9688 3.1875C17.8828 3.65625 17.5 4 17 4C16.4688 4 16.0469 3.61328 16 3.09375C16 3.0625 16 3.03125 16 3C16 2.4375 16.4375 2 17 2ZM8 4C8 4 8 7 8 7C8 8.64453 9.35547 10 11 10C11 10 23 10 23 10C24.6445 10 26 8.64453 26 7C26 7 26 4 26 4C26 4 31 4 31 4C31.5664 4 32 4.43359 32 5C32 5 32 17 32 17C32 17 24 17 24 17C22.3555 17 21 18.3555 21 20C21 20 21 41 21 41C21 41 3 41 3 41C2.43359 41 2 40.5664 2 40C2 40 2 5 2 5C2 4.43359 2.43359 4 3 4C3 4 8 4 8 4ZM10 4C10 4 14.1875 4 14.1875 4C14.6055 5.15625 15.707 6 17 6C18.293 6 19.3945 5.15625 19.8125 4C19.8125 4 24 4 24 4C24 4 24 7 24 7C24 7.56641 23.5664 8 23 8C23 8 11 8 11 8C10.4336 8 10 7.56641 10 7C10 7 10 4 10 4ZM11 14L11 20L9 20L9 17L7 17L7 20L5 20L5 22L19 22L19 20L17 20L17 16L15 16L15 20L13 20L13 14L11 14ZM42 19C42.5664 19 43 19.4336 43 20C43 20 43 43 43 43C43 43.5664 42.5664 44 42 44C42 44 24 44 24 44C23.4336 44 23 43.5664 23 43C23 43 23 42.1875 23 42.1875C23.0273 42.0547 23.0273 41.9141 23 41.7813C23 41.7813 23 20 23 20C23 19.4336 23.4336 19 24 19C24 19 42 19 42 19ZM25.8125 21C25.3359 21.0898 24.9922 21.5117 25 22C25 22 25 26 25 26C25 26.5508 25.4492 27 26 27C26 27 40 27 40 27C40.5508 27 41 26.5508 41 26C41 26 41 22 41 22C41 21.4492 40.5508 21 40 21C40 21 26 21 26 21C25.9688 21 25.9375 21 25.9063 21C25.875 21 25.8438 21 25.8125 21ZM27 23L39 23L39 25L27 25L27 23ZM11 26C7.69922 26 5 28.6992 5 32C5 35.3008 7.69922 38 11 38C14.3008 38 17 35.3008 17 32C17 28.6992 14.3008 26 11 26ZM11 32C11 32 15 32 15 32C15 34.2227 13.2227 36 11 36C8.77734 36 7 34.2227 7 32C7 29.7773 8.77734 28 11 28C11 28 11 32 11 32ZM26 29C25.4492 29 25 29.4492 25 30C25 30 25 31 25 31C25 31.5508 25.4492 32 26 32C26 32 28 32 28 32C28.5508 32 29 31.5508 29 31C29 31 29 30 29 30C29 29.4492 28.5508 29 28 29C28 29 26 29 26 29ZM32 29C31.4492 29 31 29.4492 31 30C31 30 31 31 31 31C31 31.5508 31.4492 32 32 32C32 32 34 32 34 32C34.5508 32 35 31.5508 35 31C35 31 35 30 35 30C35 29.4492 34.5508 29 34 29C34 29 32 29 32 29ZM38 29C37.4492 29 37 29.4492 37 30C37 30 37 31 37 31C37 31.5508 37.4492 32 38 32C38 32 40 32 40 32C40.5508 32 41 31.5508 41 31C41 31 41 30 41 30C41 29.4492 40.5508 29 40 29C40 29 38 29 38 29ZM26 34C25.4492 34 25 34.4492 25 35C25 35 25 36 25 36C25 36.5508 25.4492 37 26 37C26 37 28 37 28 37C28.5508 37 29 36.5508 29 36C29 36 29 35 29 35C29 34.4492 28.5508 34 28 34C28 34 26 34 26 34ZM32 34C31.4492 34 31 34.4492 31 35C31 35 31 36 31 36C31 36.5508 31.4492 37 32 37C32 37 34 37 34 37C34.5508 37 35 36.5508 35 36C35 36 35 35 35 35C35 34.4492 34.5508 34 34 34C34 34 32 34 32 34ZM38 34C37.4492 34 37 34.4492 37 35C37 35 37 36 37 36C37 36.5508 37.4492 37 38 37C38 37 40 37 40 37C40.5508 37 41 36.5508 41 36C41 36 41 35 41 35C41 34.4492 40.5508 34 40 34C40 34 38 34 38 34ZM26 39C25.4492 39 25 39.4492 25 40C25 40 25 41 25 41C25 41.5508 25.4492 42 26 42C26 42 28 42 28 42C28.5508 42 29 41.5508 29 41C29 41 29 40 29 40C29 39.4492 28.5508 39 28 39C28 39 26 39 26 39ZM32 39C31.4492 39 31 39.4492 31 40C31 40 31 41 31 41C31 41.5508 31.4492 42 32 42C32 42 34 42 34 42C34.5508 42 35 41.5508 35 41C35 41 35 40 35 40C35 39.4492 34.5508 39 34 39C34 39 32 39 32 39ZM38 39C37.4492 39 37 39.4492 37 40C37 40 37 41 37 41C37 41.5508 37.4492 42 38 42C38 42 40 42 40 42C40.5508 42 41 41.5508 41 41C41 41 41 40 41 40C41 39.4492 40.5508 39 40 39C40 39 38 39 38 39Z" fill="#FFFFFF" transform="translate(2 1)" />
  </g>
</svg>