<?xml version="1.0" encoding="utf-8"?>
<svg width="50" height="50" viewBox="0 0 50 50" fill="none" xmlns="http://www.w3.org/2000/svg">
  <defs>
    <clipPath id="clip_path_1">
      <rect width="50" height="50" />
    </clipPath>
  </defs>
  <g clip-path="url(#clip_path_1)">
    <path d="M26.8141 0C22.3571 0 19.0993 1.76172 17.3766 4.375C17.0212 4.91016 16.7555 5.47266 16.5329 6.0625C16.5329 6.0625 16.2829 5.5625 16.2829 5.5625C16.1188 5.22656 15.7829 5.00781 15.4079 5C11.9469 5 9.361 6.40625 8.00162 8.5C6.75944 10.4102 6.68522 12.8125 7.47037 15.0625C7.40787 15.1641 7.27506 15.2188 7.22037 15.3438C7.03287 15.7617 6.93131 16.2891 7.00162 16.9063C7.00162 16.918 7.00162 16.9258 7.00162 16.9375C7.1149 17.8477 7.34537 18.5 7.72037 19C7.88053 19.2109 8.13444 19.2109 8.34537 19.3438C8.49381 20.0859 8.70475 20.8242 9.00162 21.4375C9.17741 21.8047 9.36491 22.1211 9.56412 22.4063C9.63053 22.5039 9.74381 22.5703 9.81412 22.6563C9.81412 23.4219 9.78678 24.1094 9.72037 25C9.54069 25.457 9.10319 25.8594 8.28287 26.2813C7.44303 26.7109 6.31803 27.1094 5.15787 27.625C3.99772 28.1406 2.75944 28.7656 1.78287 29.7813C0.806312 30.7969 0.114905 32.2188 0.00162415 34.0313C-0.0140008 34.3086 0.0836555 34.5781 0.271155 34.7773C0.462562 34.9805 0.72428 35.0938 1.00162 35.0938C1.00162 35.0938 7.22037 35.0938 7.22037 35.0938C7.06803 35.6641 6.94694 36.2773 6.90787 36.9375C6.89225 37.2148 6.9899 37.4844 7.1774 37.6836C7.36881 37.8867 7.63053 38 7.90787 38C7.90787 38 42.0954 38 42.0954 38C42.3727 38 42.6344 37.8867 42.8258 37.6836C43.0133 37.4844 43.111 37.2148 43.0954 36.9375C43.0524 36.2383 42.9196 35.6016 42.7516 35C42.7516 35 49.0016 35 49.0016 35C49.279 35 49.5407 34.8867 49.7321 34.6836C49.9196 34.4844 50.0172 34.2148 50.0016 33.9375C49.8883 32.1289 49.1891 30.7031 48.2204 29.6875C47.2516 28.6719 46.0563 28.0469 44.9079 27.5313C43.7594 27.0156 42.6462 26.6172 41.8141 26.1875C41.0212 25.7773 40.5993 25.3555 40.4079 24.9063C40.3415 24.0977 40.3141 23.3789 40.3141 22.5625C40.3805 22.4766 40.4977 22.4063 40.5641 22.3125C40.7633 22.0313 40.9235 21.707 41.0954 21.3438C41.3727 20.7539 41.5758 20.0508 41.6891 19.3438C41.8922 19.2148 42.1305 19.2031 42.2829 19C42.6579 18.5 42.8883 17.8477 43.0016 16.9375C43.0719 16.3867 43.0094 15.8711 42.8454 15.4375C42.7985 15.3164 42.6266 15.2422 42.5641 15.125C42.7829 14.6133 43.0329 14.1289 43.0954 13.5C43.1852 12.5664 43.111 11.5195 42.8454 10.5C42.5798 9.48047 42.1188 8.46875 41.3141 7.6875C40.6657 7.05469 39.7516 6.68359 38.7204 6.53125C38.7204 6.53125 38.3141 5.59375 38.3141 5.59375C38.154 5.23438 37.7985 5.00391 37.4079 5C36.0251 5 34.5524 5.13672 33.1891 5.5625C32.8337 4.77344 32.3649 4.02344 31.7204 3.40625C30.8649 2.58203 29.6618 2.08984 28.2829 1.9375C28.2829 1.9375 27.7204 0.59375 27.7204 0.59375C27.5602 0.234375 27.2048 0.00390577 26.8141 0ZM26.6891 3.21875C26.8493 3.57813 27.2047 3.80859 27.5954 3.8125C28.8376 3.8125 29.6813 4.20703 30.3454 4.84375C31.0094 5.48047 31.4821 6.38672 31.7516 7.40625C32.0212 8.42578 32.0954 9.53906 32.0016 10.4688C31.9079 11.3984 31.5915 12.1484 31.4079 12.375C31.2165 12.6172 31.1501 12.9336 31.2204 13.2305C31.2946 13.5313 31.5016 13.7813 31.7829 13.9063C31.7672 13.8984 31.7829 13.8984 31.8141 13.9688C31.8688 14.0977 31.9274 14.3867 31.9079 14.75C31.904 14.7813 31.9118 14.7813 31.9079 14.8125C31.7712 15.6406 31.5368 16.1328 31.3766 16.3438C31.2946 16.4531 31.236 16.4883 31.2204 16.5C30.7477 16.5391 30.3727 16.9063 30.3141 17.375C30.2321 18.1211 29.943 19.0938 29.5954 19.8438C29.4235 20.2188 29.2165 20.5352 29.0641 20.75C28.9469 20.9102 28.8297 21 28.8454 21C28.5094 21.1758 28.3063 21.5273 28.3141 21.9063C28.3141 23.207 28.3063 24.25 28.4079 25.7813C28.4157 25.8789 28.4352 25.9727 28.4704 26.0625C29.0055 27.4688 30.2126 28.3164 31.5329 28.9688C32.8532 29.6211 34.3454 30.1094 35.7516 30.7188C37.1579 31.3281 38.4665 32.0625 39.4079 33.0313C40.1383 33.7813 40.5837 34.7734 40.8454 36C40.8454 36 9.15787 36 9.15787 36C9.41959 34.7734 9.86491 33.7813 10.5954 33.0313C11.5368 32.0625 12.8454 31.3281 14.2516 30.7188C15.6579 30.1094 17.1501 29.6211 18.4704 28.9688C19.7907 28.3164 20.9977 27.4688 21.5329 26.0625C21.568 25.9727 21.5876 25.8789 21.5954 25.7813C21.6969 24.3438 21.6891 23.207 21.6891 21.9063C21.6969 21.5273 21.4938 21.1758 21.1579 21C21.1579 21 21.1501 20.9883 21.1266 20.9688C21.1188 20.9648 21.1071 20.9727 21.0954 20.9688C21.0485 20.9297 20.9821 20.8477 20.9079 20.75C20.7477 20.5391 20.529 20.2109 20.3454 19.8438C19.9782 19.1133 19.6774 18.1875 19.5954 17.4063C19.5485 16.9688 19.2165 16.6133 18.7829 16.5313C18.6852 16.5117 18.1735 16.5352 18.0016 14.8125C17.9313 14.043 18.2946 13.8164 18.2516 13.8438C18.6696 13.5781 18.8297 13.0469 18.6266 12.5938C17.986 11.1211 17.7829 9.60156 18.0016 8.1875C18.2282 7.93359 18.3141 7.57813 18.2204 7.25C18.4079 6.62891 18.6735 6.04688 19.0329 5.5C20.279 3.61328 22.6227 2.23047 26.1579 2.0625C26.1579 2.0625 26.6891 3.21875 26.6891 3.21875ZM37.0954 7.78125C37.2438 8.15234 37.6032 8.39844 38.0016 8.40625C38.8923 8.40625 39.4469 8.67578 39.9079 9.125C40.3688 9.57422 40.7087 10.2422 40.9079 11C41.1071 11.7578 41.1618 12.582 41.0954 13.2812C41.029 13.9805 40.7907 14.5508 40.6891 14.6875C40.5133 14.9141 40.4469 15.2031 40.5016 15.4844C40.5524 15.7656 40.7243 16.0117 40.9704 16.1563C41.0055 16.2461 41.0329 16.4414 41.0016 16.6875C40.9157 17.375 40.7633 17.7109 40.6891 17.8125C40.2204 17.8711 39.8532 18.2461 39.8141 18.7187C39.779 19.2344 39.5407 19.9531 39.2829 20.5C39.154 20.7734 39.0212 20.9922 38.9079 21.1562C38.8219 21.2773 38.7438 21.3711 38.7516 21.375C38.4821 21.5586 38.318 21.8633 38.3141 22.1875C38.3141 23.2891 38.3024 24.1367 38.4079 25.2812C38.4196 25.3672 38.4391 25.4492 38.4704 25.5312C38.8962 26.707 39.8571 27.4414 40.8766 27.9687C41.8962 28.4961 43.0446 28.8711 44.0954 29.3437C45.1462 29.8164 46.0993 30.375 46.7829 31.0937C47.2594 31.5937 47.5758 32.2266 47.7829 33C47.7829 33 42.0016 33 42.0016 33C41.9704 33 41.9391 33 41.9079 33C41.5954 32.4883 41.2438 32.0352 40.8454 31.625C39.611 30.3555 38.0719 29.5586 36.5641 28.9062C35.0563 28.2539 33.5719 27.75 32.4391 27.1875C31.3454 26.6445 30.693 26.0664 30.4079 25.4062C30.3337 24.207 30.3141 23.3086 30.3141 22.25C30.4196 22.1289 30.5915 22.0391 30.6891 21.9062C30.943 21.5508 31.193 21.1523 31.4079 20.6875C31.7829 19.875 32.0055 18.9297 32.1579 18C32.4313 17.8359 32.7594 17.8438 32.9704 17.5625C33.4079 16.9805 33.7087 16.1758 33.8766 15.0625C33.8883 15.043 33.9001 15.0195 33.9079 15C33.9704 14.3125 33.8727 13.6992 33.6579 13.1875C33.6032 13.0586 33.4196 13.0273 33.3454 12.9062C33.6696 12.25 33.8844 11.5117 33.9704 10.6563C34.0719 9.65625 34.0368 8.56641 33.8141 7.46875C34.7126 7.22266 35.7673 7.13281 36.7829 7.09375C36.7829 7.09375 37.0954 7.78125 37.0954 7.78125ZM15.2204 7.84375C15.361 8.14453 15.6422 8.35547 15.9704 8.40625C15.8376 9.85938 16.0641 11.3672 16.5954 12.8125C16.2165 13.332 15.9118 14.0273 16.0016 15C16.1774 16.7461 16.9587 17.5742 17.7204 18.0313C17.8805 18.9883 18.1696 19.957 18.5641 20.75C18.7946 21.2109 19.0485 21.6211 19.3141 21.9688C19.4118 22.0977 19.5837 22.168 19.6891 22.2813C19.6891 23.3398 19.6696 24.2891 19.5954 25.4063C19.3102 26.0664 18.6579 26.6445 17.5641 27.1875C16.4313 27.75 14.9469 28.2539 13.4391 28.9063C11.9313 29.5586 10.3922 30.3555 9.15787 31.625C8.736 32.0586 8.35709 32.543 8.03287 33.0938C8.02116 33.0938 8.01334 33.0938 8.00162 33.0938C8.00162 33.0938 2.25162 33.0938 2.25162 33.0938C2.46256 32.3203 2.77116 31.6875 3.25162 31.1875C3.94303 30.4688 4.90787 29.9102 5.97037 29.4375C7.03287 28.9648 8.16178 28.5898 9.18912 28.0625C10.2165 27.5352 11.1969 26.8359 11.6266 25.6563C11.6618 25.5664 11.6813 25.4727 11.6891 25.375C11.7907 24.1367 11.8141 23.3125 11.8141 22.3125C11.8219 21.957 11.6462 21.625 11.3454 21.4375C11.3141 21.4023 11.2477 21.332 11.1891 21.25C11.0719 21.082 10.9196 20.8477 10.7829 20.5625C10.5094 19.9961 10.2712 19.2617 10.1891 18.6563C10.1227 18.2109 9.76334 17.8633 9.31412 17.8125C9.2399 17.7109 9.08756 17.375 9.00162 16.6875C8.97037 16.4023 9.02506 16.2383 9.06412 16.1563C9.47037 15.8789 9.61491 15.3516 9.40787 14.9063C8.57975 13.0313 8.72428 11.0781 9.68912 9.59375C10.5758 8.22656 12.2985 7.28125 14.8454 7.125C14.8454 7.125 15.2204 7.84375 15.2204 7.84375Z" fill="#FFFFFF" transform="translate(-0.002 5)" />
  </g>
</svg>