<?xml version="1.0" encoding="utf-8"?>
<svg width="43.946" height="46.056" viewBox="0 0 43.946 46.056" fill="none" xmlns="http://www.w3.org/2000/svg">
  <path d="M26.4772 0.000183344C25.6495 0.0131134 24.9888 0.693991 25.0006 1.52167C25.0006 1.52167 25.0006 5.52167 25.0006 5.52167C24.993 6.06262 25.2772 6.56579 25.7445 6.8385C26.2117 7.1112 26.7896 7.1112 27.2568 6.8385C27.7241 6.56579 28.0083 6.06262 28.0006 5.52167C28.0006 5.52167 28.0006 1.52167 28.0006 1.52167C28.0065 1.11604 27.8478 0.72536 27.5607 0.4387C27.2737 0.152039 26.8828 -0.00615716 26.4772 0.000183582C26.4772 0.000183582 26.4772 0.000183344 26.4772 0.000183344ZM20.4772 2.00018C19.6495 2.01311 18.9888 2.69399 19.0006 3.52167C19.0006 3.52167 19.0006 7.52167 19.0006 7.52167C18.993 8.06262 19.2772 8.56579 19.7445 8.8385C20.2117 9.1112 20.7896 9.1112 21.2568 8.8385C21.7241 8.56579 22.0083 8.06262 22.0006 7.52167C22.0006 7.52167 22.0006 3.52167 22.0006 3.52167C22.0065 3.11604 21.8478 2.72536 21.5607 2.4387C21.2737 2.15204 20.8828 1.99384 20.4772 2.00018C20.4772 2.00018 20.4772 2.00018 20.4772 2.00018ZM32.4772 2.00018C31.6495 2.01311 30.9888 2.69399 31.0006 3.52167C31.0006 3.52167 31.0006 7.52167 31.0006 7.52167C30.993 8.06262 31.2772 8.56579 31.7445 8.8385C32.2117 9.1112 32.7896 9.1112 33.2568 8.8385C33.7241 8.56579 34.0083 8.06262 34.0006 7.52167C34.0006 7.52167 34.0006 3.52167 34.0006 3.52167C34.0065 3.11604 33.8478 2.72536 33.5607 2.4387C33.2737 2.15204 32.8828 1.99384 32.4772 2.00018C32.4772 2.00018 32.4772 2.00018 32.4772 2.00018ZM26.5006 9.02167C22.3763 9.02167 19.0006 12.3973 19.0006 16.5217C19.0006 20.646 22.3763 24.0217 26.5006 24.0217C30.625 24.0217 34.0006 20.646 34.0006 16.5217C34.0006 12.3973 30.625 9.02167 26.5006 9.02167C26.5006 9.02167 26.5006 9.02167 26.5006 9.02167ZM26.5006 12.0217C29.0037 12.0217 31.0006 14.0186 31.0006 16.5217C31.0006 19.0247 29.0037 21.0217 26.5006 21.0217C23.9976 21.0217 22.0006 19.0247 22.0006 16.5217C22.0006 14.0186 23.9976 12.0217 26.5006 12.0217C26.5006 12.0217 26.5006 12.0217 26.5006 12.0217ZM39.6139 23.0412C38.4937 23.0509 37.4298 23.4949 36.485 24.1975C35.4708 24.9509 32.4191 27.2297 29.778 29.2014C29.2053 27.3732 27.5066 26.0217 25.5006 26.0217C25.5006 26.0217 21.1081 26.0217 21.1081 26.0217C18.2968 26.0217 16.9862 25.7939 15.86 25.5549C14.7339 25.3158 13.6474 25.0217 11.8268 25.0217C7.94204 25.0217 5.01298 27.5147 3.09439 29.8127C1.17581 32.1107 0.135411 34.4064 0.135411 34.4064C-0.208149 35.1604 0.124577 36.0502 0.878575 36.3937C1.63257 36.7373 2.52232 36.4046 2.86588 35.6506C2.86588 35.6506 3.76496 33.6915 5.39713 31.7365C7.0293 29.7815 9.26059 28.0217 11.8268 28.0217C13.3482 28.0217 14.0074 28.2275 15.237 28.4885C16.4666 28.7494 18.1243 29.0217 21.1081 29.0217C21.1081 29.0217 25.5006 29.0217 25.5006 29.0217C26.3471 29.0217 27.0006 29.6752 27.0006 30.5217C27.0006 30.9912 26.7948 31.396 26.4713 31.6682C26.4711 31.6684 26.4303 31.6994 26.4303 31.6994C26.4015 31.7218 26.3735 31.7453 26.3463 31.7697C26.3457 31.7704 26.345 31.771 26.3444 31.7717C26.1059 31.9303 25.8171 32.0217 25.5006 32.0217C25.5006 32.0217 18.5006 32.0217 18.5006 32.0217C17.9597 32.014 17.4565 32.2982 17.1838 32.7655C16.9111 33.2327 16.9111 33.8106 17.1838 34.2779C17.4565 34.7451 17.9597 35.0293 18.5006 35.0217C18.5006 35.0217 25.5006 35.0217 25.5006 35.0217C26.4413 35.0217 27.316 34.7231 28.0417 34.2209C28.0428 34.2201 28.0444 34.2197 28.0456 34.2189C28.1081 34.1848 28.1682 34.1463 28.2253 34.1037C28.2253 34.1037 36.7766 27.7181 38.2741 26.6057C38.2741 26.605 38.2741 26.6044 38.2741 26.6037C38.8383 26.1842 39.3105 26.0441 39.6413 26.0412C39.9721 26.0383 40.2189 26.1186 40.5612 26.4611C41.1516 27.051 41.148 27.9568 40.5729 28.5549C35.2178 33.0579 31.8491 36.0586 29.6237 37.8166C27.3705 39.5966 26.4256 40.0217 25.5006 40.0217C21.8485 40.0217 17.8013 39.0217 13.5006 39.0217C11.0006 39.0217 9.24343 40.3653 8.30143 41.6213C7.35943 42.8773 7.04557 44.1584 7.04557 44.1584C6.90144 44.6833 7.05292 45.245 7.44138 45.6263C7.82984 46.0075 8.39433 46.1485 8.91641 45.9945C9.43849 45.8406 9.83623 45.416 9.95572 44.8849C9.95572 44.8849 10.1419 44.1661 10.6999 43.4221C11.2579 42.6781 12.0006 42.0217 13.5006 42.0217C17.308 42.0217 21.3368 43.0217 25.5006 43.0217C27.4026 43.0217 29.0855 42.0661 31.4831 40.1721C33.8504 38.3019 37.1761 35.3316 42.4987 30.8557C42.5638 30.8098 42.6252 30.7589 42.6823 30.7033C42.6892 30.6964 42.6911 30.6868 42.6979 30.6799C42.6979 30.6799 42.7018 30.6838 42.7018 30.6838C42.7018 30.6838 42.7546 30.6291 42.7546 30.6291C42.9009 30.4766 43.0134 30.2949 43.0846 30.0959C44.3311 28.3435 44.2495 25.9059 42.6823 24.34C41.8535 23.5106 40.7341 23.0315 39.6139 23.0412C39.6139 23.0412 39.6139 23.0412 39.6139 23.0412Z" fill="#ACB2BD" transform="translate(-0 -0)" />
</svg>