<?xml version="1.0" encoding="utf-8"?>
<svg width="48" height="48" viewBox="0 0 48 48" fill="none" xmlns="http://www.w3.org/2000/svg">
  <g>
    <path d="M14.3007 0C14.3007 0 14.3007 2.387 14.3007 2.387C14.3007 6.145 8.97375 9.807 3.75575 15.432C2.04975 17.2 0.64375 18.64 0.30075 22C-0.69625 17.898 0.90675 15.528 3.32475 12.871C3.32475 12.871 12.0377 4.039 12.0377 4.039C13.6887 2.243 13.7707 1.631 14.3007 0C14.3007 0 14.3007 0 14.3007 0Z" fill="#F9A825" transform="translate(12.699 2)" />
    <path d="M13.7606 0C13.7606 0 13.7606 2.387 13.7606 2.387C13.7606 6.145 8.43355 9.807 3.21555 15.432C1.85155 16.868 0.127551 19.214 1.10955 22.014C-0.996449 19.836 0.0805511 15.695 2.78555 12.87C2.78555 12.87 11.4985 4.038 11.4985 4.038C13.1486 2.244 13.2305 1.631 13.7606 0C13.7606 0 13.7606 0 13.7606 0Z" fill="#F9A825" transform="translate(13.239 6.715)" />
    <path d="M12.181 0C12.181 0 12.181 2.387 12.181 2.387C12.181 6.145 8.553 8.108 3.335 13.733C1.629 15.501 0.151001 18.807 2.449 20.1C-0.566998 19.765 -0.757998 15.026 1.659 12.369C1.659 12.369 9.917 4.039 9.917 4.039C11.569 2.243 11.651 1.63 12.181 0C12.181 0 12.181 0 12.181 0Z" fill="#F9A825" transform="translate(14.819 11.431)" />
    <path d="M6.702 9.144C9.407 6.32 10.484 2.179 8.378 0C9.359 2.801 7.636 5.146 6.272 6.582C2.362 10.388 0 12.558 0 15.373C0 15.373 0 17.76 0 17.76C0.530001 16.129 0.612 15.517 2.263 13.721C2.263 13.721 6.702 9.144 6.702 9.144C6.702 9.144 6.702 9.144 6.702 9.144Z" fill="#F9A825" transform="translate(25 17.576)" />
    <path d="M6.19268 7.731C8.61068 5.074 8.41868 0.335 5.40268 0C7.70068 1.293 6.22368 4.599 4.51668 6.367C1.05368 9.902 -0.0313187 11.242 0.000682831 13.459C0.000682831 13.459 0.000682831 15.846 0.000682831 15.846C0.530684 14.215 0.612682 13.603 2.26368 11.807C2.26368 11.807 6.19268 7.731 6.19268 7.731C6.19268 7.731 6.19268 7.731 6.19268 7.731Z" fill="#F9A825" transform="translate(24.999 14.776)" />
    <path d="M0.0119991 0C0.00399971 0.107998 0 0.211998 0 0.313999C0 0.313999 0 2.701 0 2.701C0.311001 1.576 0.534 0.904999 1.165 0C1.165 0 0.0119991 0 0.0119991 0C0.0119991 0 0.0119991 0 0.0119991 0Z" fill="#F9A825" transform="translate(25 37.351)" />
    <path d="M9.045 0C8.702 3.36 7.296 4.8 5.59 6.568C2.351 9.47 0.754 11.477 0 12.973C0 12.973 2.288 12.973 2.288 12.973C2.288 12.973 6.02 9.129 6.02 9.129C8.439 6.472 10.043 4.102 9.045 0C9.045 0 9.045 0 9.045 0Z" fill="#F9A825" transform="translate(25.617 22.378)" />
    <path d="M16 1.626C16 1.626 6.654 0 6.654 0C5.96 0.527 4.396 1.773 3.207 3.184C0.263 6.678 0 8.626 0 8.626C0.889999 6.205 3.984 5.812 6.473 6.319C6.473 6.319 21 8.626 21 8.626L16 1.626L16 1.626Z" fill="#004D40" transform="translate(25 33.374)" />
    <path d="M18.681 4.44131L18.681 2.44131L21 2.44131C21 2.44131 21 2.09031 21 2.09031C20.976 0.0853081 18.888 -0.32869 15.723 0.224308C15.723 0.224308 5 2.09031 5 2.09031L0 9.09031C0 9.09031 14.527 6.78331 14.527 6.78331C17.016 6.27631 20.11 6.66931 21 9.09031C21 9.09031 21 4.44131 21 4.44131L18.681 4.44131L18.681 4.44131Z" fill="#004D40" transform="translate(2 32.91)" />
  </g>
</svg>